# xmcd CD database file
#
# Track frame offsets:
#	150
#	17923
#	33982
#	50804
#	68221
#	85371
#	102242
#	125509
#	144530
#	166184
#	180587
#
# Disc length: 2640 seconds
#
# Revision: 0
# Processed by: cddbd v1.5.2PL0 Copyright (c) Steve Scherf et al.
# Submitted via: CDex 1.51
#
DISCID=960a4e0b
DTITLE=Johnson, Carolyn Dawn - Room With A View
DYEAR=1900
DGENRE=Country
TTITLE0=Georgia
TTITLE1=Just Another Girl
TTITLE2=I'll Think Of You That Way
TTITLE3=Love Is Always Worth The Ache
TTITLE4=Complicated
TTITLE5=I Don't Want You To Go
TTITLE6=You Are
TTITLE7=Masterpiece
TTITLE8=Little Bit of This, Little Bit of That
TTITLE9=One Day Closer To You
TTITLE10=Room With A View
EXTD=
EXTT0=
EXTT1=
EXTT2=
EXTT3=
EXTT4=
EXTT5=
EXTT6=
EXTT7=
EXTT8=
EXTT9=
EXTT10=
PLAYORDER=
